<?xml version="1.0" encoding="UTF-8"?>
<svg width="512px" height="521px" viewBox="0 0 512 521" version="1.1" xmlns="http://www.w3.org/2000/svg" xmlns:xlink="http://www.w3.org/1999/xlink">
    <title>illustration-cibersecurity</title>
    <g id="illustration-cibersecurity" stroke="none" stroke-width="1" fill="none" fill-rule="evenodd">
        <g id="001-cyber" transform="translate(8.000000, 5.000000)" fill="#000000" fill-rule="nonzero">
            <path d="M488.626,307.889 L488.626,272.041 C488.626,267.905 486.77,264.055 483.534,261.475 L424.7,214.617 L424.7,128.003 C424.7,118.859 417.261,111.366 408.119,111.301 L393.066,111.192 L393.066,100.67 L465.909,27.827 C466.914,28.055 467.956,28.186 469.03,28.186 C476.813,28.186 483.123,21.876 483.123,14.093 C483.123,6.309 476.813,2.84217094e-14 469.03,2.84217094e-14 C461.247,2.84217094e-14 454.937,6.309 454.937,14.093 C454.937,15.167 455.068,16.208 455.295,17.213 L382.013,90.496 C379.462,93.048 378.057,96.44 378.057,100.047 L378.057,110.899 C368.536,110.496 359.815,109.62 351.845,108.386 L351.845,72.498 L396.518,27.827 C397.523,28.055 398.565,28.186 399.639,28.186 C407.422,28.186 413.732,21.876 413.732,14.093 C413.732,6.31 407.422,2.84217094e-14 399.639,2.84217094e-14 C391.856,2.84217094e-14 385.546,6.309 385.546,14.093 C385.546,15.167 385.677,16.208 385.904,17.214 L340.789,62.329 C338.24,64.88 336.836,68.272 336.836,71.879 L336.836,105.475 C325.295,102.748 315.696,99.288 307.799,95.636 L307.799,26.006 C311.753,23.51 314.387,19.114 314.387,14.092 C314.389,6.309 308.079,2.84217094e-14 300.296,2.84217094e-14 C292.513,2.84217094e-14 286.203,6.309 286.203,14.093 C286.203,19.114 288.837,23.511 292.791,26.007 L292.791,87.335 C286.923,83.457 282.783,79.839 280.113,77.168 C276.398,73.454 272.909,69.41 269.74,65.146 C265.114,58.923 258.012,55.343 250.256,55.325 C250.236,55.325 250.217,55.325 250.196,55.325 C242.439,55.325 235.318,58.884 230.655,65.096 C227.494,69.305 223.965,73.366 220.163,77.168 C216.541,80.79 211.384,85.129 204.331,89.476 L204.331,26.006 C208.285,23.51 210.919,19.114 210.919,14.092 C210.92,6.309 204.611,2.84217094e-14 196.827,2.84217094e-14 C189.044,2.84217094e-14 182.734,6.309 182.734,14.093 C182.734,19.114 185.368,23.511 189.322,26.007 L189.322,97.232 C180.997,100.819 171.033,104.083 159.162,106.548 L159.162,71.878 C159.162,68.27 157.757,64.879 155.206,62.326 L110.094,17.215 C110.322,16.21 110.453,15.168 110.453,14.094 C110.453,6.311 104.143,2.84217094e-14 96.36,2.84217094e-14 C88.577,2.84217094e-14 82.267,6.31 82.267,14.094 C82.267,21.877 88.577,28.187 96.36,28.187 C97.434,28.187 98.476,28.056 99.481,27.828 L144.153,72.5 L144.153,109.063 C136.146,110.113 127.433,110.815 117.941,111.06 L117.941,100.048 C117.941,96.44 116.536,93.048 113.985,90.497 L40.704,17.214 C40.932,16.209 41.063,15.167 41.063,14.093 C41.063,6.309 34.753,2.84217094e-14 26.97,2.84217094e-14 C19.187,2.84217094e-14 12.877,6.309 12.877,14.093 C12.877,21.876 19.187,28.186 26.97,28.186 C28.044,28.186 29.086,28.055 30.091,27.827 L102.934,100.67 L102.934,111.223 L92.159,111.301 C83.016,111.366 75.577,118.859 75.577,128.003 L75.577,138.032 C75.577,142.177 78.937,145.536 83.081,145.536 C87.225,145.536 90.585,142.177 90.585,138.032 L90.585,128.003 C90.585,127.076 91.339,126.316 92.266,126.31 L112.601,126.162 C151.972,125.875 179.992,118.221 199.483,109.067 C199.901,108.908 200.3,108.714 200.679,108.487 C215.134,101.526 224.773,93.783 230.776,87.78 C235.076,83.48 239.073,78.879 242.657,74.106 C244.458,71.707 247.205,70.332 250.197,70.332 L250.22,70.332 C253.195,70.339 255.921,71.712 257.694,74.098 C261.297,78.947 265.269,83.549 269.499,87.78 C280.864,99.144 315.129,125.634 387.675,126.162 L408.01,126.31 C408.936,126.317 409.691,127.076 409.691,128.003 L409.691,239.69 C409.691,267.384 403.253,295.169 391.072,320.042 C388.461,325.374 385.54,330.657 382.39,335.741 C380.207,339.264 381.293,343.889 384.816,346.072 C386.047,346.835 387.412,347.199 388.762,347.199 C391.273,347.199 393.728,345.938 395.148,343.646 C398.559,338.141 401.724,332.42 404.552,326.643 C409.855,315.814 414.134,304.47 417.376,292.833 L433.533,305.046 L433.533,411 C429.579,413.496 426.945,417.892 426.945,422.913 C426.945,430.696 433.254,437.006 441.038,437.006 C448.821,437.006 455.131,430.696 455.131,422.913 C455.131,417.891 452.496,413.495 448.542,410.999 L448.542,304.298 C448.542,300.089 446.538,296.061 443.179,293.522 L421.129,276.854 C423.48,264.603 424.7,252.139 424.7,239.689 L424.7,233.803 L473.617,272.764 L473.617,307.889 C469.663,310.385 467.029,314.781 467.029,319.803 C467.029,327.586 473.338,333.896 481.122,333.896 C488.905,333.896 495.215,327.586 495.215,319.803 C495.215,314.781 492.58,310.385 488.626,307.889 L488.626,307.889 Z" id="Path"></path>
            <path d="M378.305,485.994 L378.305,415.592 C378.305,411.984 376.9,408.593 374.349,406.04 L356.958,388.649 C363.813,382.658 370.293,376.172 376.291,369.257 C379.006,366.126 378.669,361.386 375.539,358.671 C372.409,355.957 367.669,356.293 364.953,359.423 C357.102,368.476 348.375,376.75 339.013,384.016 L272.117,435.935 C265.858,440.792 258.053,443.468 250.139,443.468 C242.111,443.468 234.511,440.863 228.161,435.935 L161.265,384.016 C139.386,367.034 121.384,344.912 109.204,320.041 C97.024,295.17 90.585,267.385 90.585,239.69 L90.585,171.438 C90.585,167.293 87.225,163.934 83.081,163.934 C78.937,163.934 75.577,167.293 75.577,171.438 L75.577,211.212 L12.467,261.476 C9.23,264.054 7.374,267.905 7.374,272.042 L7.374,307.89 C3.42,310.386 0.786,314.782 0.786,319.804 C0.786,327.587 7.096,333.897 14.879,333.897 C22.662,333.897 28.638,327.587 28.638,319.804 C28.638,314.824 26.184,310.457 22.383,307.95 L22.383,272.765 L75.577,230.398 L75.577,239.69 C75.577,251.182 76.61,262.686 78.617,274.023 L52.819,293.524 C49.463,296.064 47.459,300.091 47.459,304.298 L47.459,410.999 C43.505,413.495 40.871,417.891 40.871,422.913 C40.871,430.696 47.181,437.006 54.964,437.006 C62.747,437.006 68.723,430.696 68.723,422.913 C68.723,417.933 66.269,413.566 62.468,411.059 L62.468,305.045 L82.162,290.158 C85.478,302.734 90.017,314.984 95.726,326.642 C106.801,349.256 122.337,369.756 141.059,386.635 L121.653,406.04 C119.102,408.591 117.697,411.984 117.697,415.592 L117.697,485.994 C113.743,488.49 111.109,492.886 111.109,497.908 C111.109,505.691 117.419,512.001 125.202,512.001 C132.985,512.001 139.295,505.691 139.295,497.908 C139.295,492.886 136.661,488.49 132.707,485.994 L132.707,416.214 L152.619,396.302 L218.961,447.791 C227.839,454.682 238.912,458.476 250.14,458.476 C261.368,458.476 272.442,454.682 281.32,447.791 L345.254,398.171 L363.298,416.214 L363.298,485.993 C359.344,488.489 356.709,492.885 356.709,497.907 C356.709,505.69 363.019,512.001 370.802,512.001 C378.585,512.001 384.895,505.69 384.895,497.907 C384.895,492.886 382.259,488.49 378.305,485.994 L378.305,485.994 Z" id="Path"></path>
            <circle id="Oval" cx="250.138" cy="422.913" r="8.598"></circle>
            <path d="M258.736,98.979 C258.736,94.231 254.887,90.381 250.138,90.381 C245.389,90.381 241.54,94.23 241.54,98.979 C241.54,103.727 245.389,107.577 250.138,107.577 C254.887,107.577 258.736,103.728 258.736,98.979 Z" id="Path"></path>
            <circle id="Oval" cx="388.162" cy="149.632" r="8.598"></circle>
            <circle id="Oval" cx="111.089" cy="149.632" r="8.598"></circle>
            <path d="M174.302,294.138 C170.157,294.138 166.798,297.497 166.798,301.642 L166.798,335.11 C166.798,348.864 177.988,360.054 191.742,360.054 L308.536,360.054 C322.29,360.054 333.479,348.864 333.479,335.11 L333.479,259.023 C333.479,248.635 327.094,239.713 318.044,235.967 L318.044,207.983 C318.044,169.348 286.613,137.917 247.978,137.917 C209.343,137.917 177.912,169.348 177.912,207.983 L177.912,238.277 C171.217,242.755 166.798,250.382 166.798,259.024 L166.798,266.053 C166.798,270.198 170.158,273.557 174.302,273.557 C178.446,273.557 181.806,270.198 181.806,266.053 L181.806,259.024 C181.806,253.545 186.263,249.088 191.741,249.088 L308.535,249.088 C314.013,249.088 318.47,253.545 318.47,259.024 L318.47,335.111 C318.47,340.59 314.013,345.046 308.535,345.046 L191.741,345.046 C186.263,345.046 181.806,340.589 181.806,335.111 L181.806,301.643 C181.806,297.497 178.446,294.138 174.302,294.138 Z M247.977,152.925 C278.336,152.925 303.035,177.624 303.035,207.983 L303.035,234.079 L289.601,234.079 L289.601,207.983 C289.601,185.031 270.929,166.359 247.977,166.359 C225.026,166.359 206.353,185.031 206.353,207.983 L206.353,234.079 L192.92,234.079 L192.92,207.983 C192.92,177.624 217.618,152.925 247.977,152.925 Z M274.593,234.079 L221.363,234.079 L221.363,207.983 C221.363,193.307 233.303,181.368 247.978,181.368 C262.653,181.368 274.593,193.308 274.593,207.983 L274.593,234.079 Z" id="Shape"></path>
            <path d="M246.726,325.295 L255.306,325.295 C256.397,325.295 257.282,324.41 257.282,323.319 L257.282,308.463 C257.282,307.952 257.566,307.473 258.029,307.257 C263.68,304.615 267.597,298.883 267.597,292.232 C267.597,282.723 259.593,275.084 249.954,275.685 C241.713,276.199 235.002,282.895 234.471,291.134 C234.013,298.235 238.03,304.45 243.975,307.243 C244.441,307.462 244.751,307.916 244.751,308.431 L244.751,323.319 C244.75,324.41 245.635,325.295 246.726,325.295 L246.726,325.295 Z" id="Path"></path>
        </g>
    </g>
</svg>